<?xml version="1.0" encoding="UTF-8" standalone="no"?><!DOCTYPE svg PUBLIC "-//W3C//DTD SVG 1.1//EN" "http://www.w3.org/Graphics/SVG/1.1/DTD/svg11.dtd"><svg width="100%" height="100%" viewBox="0 0 944 416" version="1.1" xmlns="http://www.w3.org/2000/svg" xmlns:xlink="http://www.w3.org/1999/xlink" xml:space="preserve" xmlns:serif="http://www.serif.com/" style="fill-rule:evenodd;clip-rule:evenodd;stroke-linecap:round;stroke-linejoin:round;stroke-miterlimit:1.5;"><rect id="color" x="0" y="0.179" width="943.129" height="415.672" style="fill:none;"/><path d="M935.46,35.156l0,251.956c0,14.99 -12.17,27.16 -27.16,27.16l-872.642,0c-14.99,0 -27.16,-12.17 -27.16,-27.16l-0,-251.956c-0,-14.99 12.17,-27.16 27.16,-27.16l872.642,-0c14.99,-0 27.16,12.17 27.16,27.16Z" style="fill:#fab601;stroke:#000;stroke-width:12px;"/><g><clipPath id="_clip1"><rect x="28.794" y="26.865" width="269.513" height="268.538"/></clipPath><g clip-path="url(#_clip1)"><path id="a" d="M68.204,45.188l29.661,31.149l-5.722,21.119l-20.094,6.013l-29.662,-31.173l-13.412,14.095l34.079,51.619l40.19,-8.034l141.052,157.839c21.605,22.875 50.74,-11.425 30.531,-30.957l-150.71,-149.805l9.177,-42.719l-50.672,-34.324l-14.418,15.178Zm185.521,221.22c3.846,-4.041 10.071,-4.041 13.916,-0c3.845,4.041 3.845,10.583 -0,14.624c-3.845,4.017 -10.07,4.017 -13.916,0c-3.845,-4.041 -3.845,-10.583 0,-14.624Z" style="fill-rule:nonzero;"/><path id="a1" serif:id="a" d="M68.204,45.188l29.661,31.149l-5.722,21.119l-20.094,6.013l-29.662,-31.173l-13.412,14.095l34.079,51.619l40.19,-8.034l141.052,157.839c21.605,22.875 50.74,-11.425 30.531,-30.957l-150.71,-149.805l9.177,-42.719l-50.672,-34.324l-14.418,15.178Zm185.521,221.22c3.846,-4.041 10.071,-4.041 13.916,-0c3.845,4.041 3.845,10.583 -0,14.624c-3.845,4.017 -10.07,4.017 -13.916,0c-3.845,-4.041 -3.845,-10.583 0,-14.624Z" style="fill-rule:nonzero;"/><path id="a2" serif:id="a" d="M68.204,45.188l29.661,31.149l-5.722,21.119l-20.094,6.013l-29.662,-31.173l-13.412,14.095l34.079,51.619l40.19,-8.034l141.052,157.839c21.605,22.875 50.74,-11.425 30.531,-30.957l-150.71,-149.805l9.177,-42.719l-50.672,-34.324l-14.418,15.178Zm185.521,221.22c3.846,-4.041 10.071,-4.041 13.916,-0c3.845,4.041 3.845,10.583 -0,14.624c-3.845,4.017 -10.07,4.017 -13.916,0c-3.845,-4.041 -3.845,-10.583 0,-14.624Z" style="fill-rule:nonzero;"/><clipPath id="_clip2"><path id="a3" serif:id="a" d="M-57.675,-171.294l29.662,31.149l-5.722,21.119l-20.095,6.014l-29.661,-31.174l-13.412,14.096l34.079,51.619l40.189,-8.034l141.053,157.839c21.605,22.875 50.74,-11.426 30.531,-30.957l-150.711,-149.805l9.178,-42.719l-50.672,-34.325l-14.419,15.178Zm185.522,221.22c3.845,-4.041 10.07,-4.041 13.915,0c3.845,4.041 3.845,10.584 0,14.625c-3.845,4.017 -10.07,4.017 -13.915,-0c-3.845,-4.041 -3.845,-10.584 0,-14.625Z"/></clipPath><g clip-path="url(#_clip2)"><path d="M68.204,45.188l29.661,31.149l-5.722,21.119l-20.094,6.013l-29.662,-31.173l-13.412,14.095l34.079,51.619l40.19,-8.034l141.052,157.839c21.605,22.875 50.74,-11.425 30.531,-30.957l-150.71,-149.805l9.177,-42.719l-50.672,-34.324l-14.418,15.178Zm185.521,221.22c3.846,-4.041 10.071,-4.041 13.916,-0c3.845,4.041 3.845,10.583 -0,14.624c-3.845,4.017 -10.07,4.017 -13.916,0c-3.845,-4.041 -3.845,-10.583 0,-14.624Z" style="fill-rule:nonzero;"/></g><path d="M72.577,40.858l30.782,32.184l-7.621,28.119l-25.061,7.865l-31.053,-33.049l-10.83,10.921l32.499,47.963l43.256,-9.959l143.043,159.626c17.166,19.965 46.232,-6.422 25.496,-27.902l-153.112,-151.781l8.834,-41.3l-45.682,-33.747l-10.551,11.065l-0,-0.005Zm183.024,224.421c3.822,-4.017 10.596,-4.811 14.419,-0.722c3.89,4.017 7.003,11.137 1.487,18.859c-4.577,4.81 -11.901,4.618 -16.478,-0.578c-3.845,-4.041 -3.318,-13.47 0.572,-17.559l-0,-0Z" style="fill-rule:nonzero;"/><path d="M72.272,40.911l53.715,56.887l7.369,-33.363l-50.579,-34.638l-10.505,11.113l0,0.001Z" style="fill-rule:nonzero;"/><path d="M178.79,161.417l10.6,10.295c0.869,10.391 -1.671,13.518 -17.92,27.998l-19.683,-22.177l26.983,-16.116l0.021,-0l-0.001,-0Z" style="fill-rule:nonzero;"/><path id="b" d="M144.6,32.68l1.74,0.385c20.232,-7.072 65.64,20.782 55.524,45.605c-2.564,3.897 -2.129,10.824 0.961,15.178l-56.783,59.701c-3.181,-3.344 -10.253,-3.272 -13.503,-0l-93.905,94.722c-8.56,8.635 -1.831,15.972 1.785,19.844l16.845,17.704c3.685,3.848 13.411,9.044 20.323,1.347l88.619,-98.163c3.089,-3.415 3.112,-10.752 -0,-14.119c-0,-0 0.023,-0.048 -0,-0.048l57.011,-59.893c6.019,5.7 11.704,6.193 17.097,4.642c10.415,-2.996 16.22,7.713 22.452,15.539l-2.815,2.91c-4.166,4.426 -3.777,11.882 0.892,16.789c4.669,4.907 11.787,5.316 15.953,0.938l18.63,-19.555c4.165,-4.426 3.776,-11.882 -0.916,-16.765c-4.211,-4.45 -10.322,-5.027 -14.579,-1.852c-12.771,-15.058 -6.065,-17.319 -22.91,-36.923l-31.561,-33.891c-22.727,-23.428 -52.251,-23.404 -80.86,-14.095l0,-0Z" style="fill-rule:nonzero;"/><path id="b1" serif:id="b" d="M144.6,32.68l1.74,0.385c20.232,-7.072 65.64,20.782 55.524,45.605c-2.564,3.897 -2.129,10.824 0.961,15.178l-56.783,59.701c-3.181,-3.344 -10.253,-3.272 -13.503,-0l-93.905,94.722c-8.56,8.635 -1.831,15.972 1.785,19.844l16.845,17.704c3.685,3.848 13.411,9.044 20.323,1.347l88.619,-98.163c3.089,-3.415 3.112,-10.752 -0,-14.119c-0,-0 0.023,-0.048 -0,-0.048l57.011,-59.893c6.019,5.7 11.704,6.193 17.097,4.642c10.415,-2.996 16.22,7.713 22.452,15.539l-2.815,2.91c-4.166,4.426 -3.777,11.882 0.892,16.789c4.669,4.907 11.787,5.316 15.953,0.938l18.63,-19.555c4.165,-4.426 3.776,-11.882 -0.916,-16.765c-4.211,-4.45 -10.322,-5.027 -14.579,-1.852c-12.771,-15.058 -6.065,-17.319 -22.91,-36.923l-31.561,-33.891c-22.727,-23.428 -52.251,-23.404 -80.86,-14.095l0,-0Z" style="fill-rule:nonzero;"/><path d="M206.669,89.804l-67.401,70.839l20.209,21.239l67.401,-70.815l-20.209,-21.263Z" style="fill-rule:nonzero;"/><path d="M220.424,104.266l-67.401,70.815l6.454,6.807l67.401,-70.815l-6.454,-6.807Z" style="fill-rule:nonzero;"/><path d="M214.771,92.906l-67.127,70.55l8.674,9.116l65.41,-72.354l-6.957,-7.312l-0,-0Z" style="fill-rule:nonzero;"/><path d="M144.602,32.685l1.74,0.384c20.232,-7.071 65.638,20.783 55.523,45.607c-2.564,3.896 -2.129,10.824 0.961,15.178l20.392,21.095c6.019,5.701 11.695,6.182 17.096,4.643c10.413,-2.959 16.203,7.697 22.452,15.539l-2.815,2.91c-4.166,4.426 -3.777,11.883 0.892,16.79c4.669,4.907 11.786,5.316 15.953,0.938l18.629,-19.556c4.165,-4.426 3.776,-11.882 -0.915,-16.765c-4.212,-4.45 -10.323,-5.028 -14.579,-1.852c-12.771,-15.058 -6.065,-17.319 -22.909,-36.923l-31.561,-33.892c-22.727,-23.429 -52.251,-23.405 -80.859,-14.096l0,-0Z" style="fill-rule:nonzero;"/><path d="M279.923,117.585c-12.771,-15.058 -6.065,-17.319 -22.909,-36.923l-31.561,-33.892c-13.022,-13.422 -28.288,-19.147 -44.309,-19.868l94.131,99.896l6.809,-6.567l-2.163,-2.646l0.002,-0Z" style="fill-rule:nonzero;"/><path d="M203.307,71.17c0.114,2.405 -0.411,4.811 -1.488,7.505c-2.517,3.896 -2.082,10.824 1.007,15.178l20.392,21.095c6.019,5.701 11.695,6.182 17.096,4.643c2.472,-0.794 4.715,-0.65 6.82,-0c6.409,1.852 -43.85,-49.431 -43.827,-48.661l-0,0.24l-0,-0Z" style="fill-rule:nonzero;"/><path d="M146.043,153.55c-3.181,-3.343 -10.253,-3.271 -13.503,0l-93.9,94.725c-8.56,8.635 -1.877,15.972 1.785,19.845l16.845,17.703c3.685,3.848 13.411,9.044 20.323,1.347l88.617,-98.164c3.09,-3.416 3.113,-10.753 0,-14.12c0,0 0.023,-0.048 0,-0.048l-20.163,-21.288l-0.004,0Z" style="fill-rule:nonzero;"/><path d="M40.395,268.095l16.845,17.728c3.685,3.848 13.114,9.357 20.026,1.708l88.96,-98.549c3.09,-3.44 3.182,-10.824 0,-14.144l-20.209,-21.263l-105.622,114.523l0,-0.003Z" style="fill-rule:nonzero;"/><path d="M134.071,161.851l-88.983,91.5c-3.708,3.753 -2.449,9.02 0.229,11.763l9.452,9.549l96.966,-104.874l-8.971,-8.852c-1.923,-1.924 -6.409,-1.371 -8.697,0.914l0.004,-0Z" style="fill-rule:nonzero;"/><clipPath id="_clip3"><path id="b2" serif:id="b" d="M18.722,-183.802l1.739,0.385c20.233,-7.072 65.64,20.782 55.524,45.606c-2.563,3.896 -2.128,10.824 0.962,15.177l-56.783,59.701c-3.181,-3.343 -10.253,-3.271 -13.503,0l-93.906,94.723c-8.559,8.635 -1.831,15.971 1.786,19.844l16.844,17.703c3.685,3.849 13.412,9.044 20.324,1.347l88.618,-98.162c3.09,-3.416 3.113,-10.752 0,-14.119c0,-0 0.023,-0.049 0,-0.049l57.012,-59.893c6.019,5.701 11.704,6.194 17.096,4.643c10.415,-2.996 16.221,7.713 22.452,15.538l-2.815,2.911c-4.165,4.425 -3.776,11.882 0.893,16.789c4.669,4.907 11.787,5.316 15.952,0.938l18.63,-19.555c4.166,-4.426 3.777,-11.883 -0.915,-16.766c-4.211,-4.45 -10.322,-5.027 -14.579,-1.852c-12.771,-15.057 -6.065,-17.318 -22.91,-36.922l-31.561,-33.891c-22.727,-23.428 -52.251,-23.404 -80.86,-14.096l0,0Z"/></clipPath><g clip-path="url(#_clip3)"><path d="M144.6,32.68l1.74,0.385c20.232,-7.072 65.64,20.782 55.524,45.605c-2.564,3.897 -2.129,10.824 0.961,15.178l-56.783,59.701c-3.181,-3.344 -10.253,-3.272 -13.503,-0l-93.905,94.722c-8.56,8.635 -1.831,15.972 1.785,19.844l16.845,17.704c3.685,3.848 13.411,9.044 20.323,1.347l88.619,-98.163c3.089,-3.415 3.112,-10.752 -0,-14.119c-0,-0 0.023,-0.048 -0,-0.048l57.011,-59.893c6.019,5.7 11.704,6.193 17.097,4.642c10.415,-2.996 16.22,7.713 22.452,15.539l-2.815,2.91c-4.166,4.426 -3.777,11.882 0.892,16.789c4.669,4.907 11.787,5.316 15.953,0.938l18.63,-19.555c4.165,-4.426 3.776,-11.882 -0.916,-16.765c-4.211,-4.45 -10.322,-5.027 -14.579,-1.852c-12.771,-15.058 -6.065,-17.319 -22.91,-36.923l-31.561,-33.891c-22.727,-23.428 -52.251,-23.404 -80.86,-14.095l0,-0Z" style="fill-rule:nonzero;"/></g><path d="M292.56,122.307c3.456,3.464 4.12,8.274 -0.641,12.893l-8.857,8.732c-4.76,4.69 -17.21,-7.818 -12.473,-12.484l8.88,-8.732c4.737,-4.69 9.634,-3.872 13.091,-0.408l0,-0.001Z" style="fill-rule:nonzero;"/></g><g transform="matrix(326.042,0,0,326.042,909.703,284.052)"></g><text x="302.287px" y="284.052px" style="font-family:'Futura-Bold', 'Futura', sans-serif;font-weight:700;font-size:326.042px;">DIY</text></g><g transform="matrix(93.6227,0,0,93.6227,914.711,396.651)"></g><text x="656.313px" y="396.651px" style="font-family:'NanumBrush', 'Nanum Brush Script', cursive;font-size:93.623px;">by VTEX</text></svg>