<?xml version="1.0" encoding="UTF-8" standalone="no"?><!DOCTYPE svg PUBLIC "-//W3C//DTD SVG 1.1//EN" "http://www.w3.org/Graphics/SVG/1.1/DTD/svg11.dtd"><svg width="100%" height="100%" viewBox="0 0 3276 1147" version="1.1" xmlns="http://www.w3.org/2000/svg" xmlns:xlink="http://www.w3.org/1999/xlink" xml:space="preserve" xmlns:serif="http://www.serif.com/" style="fill-rule:evenodd;clip-rule:evenodd;stroke-linejoin:round;stroke-miterlimit:2;"><rect id="Artboard1" x="0" y="0" width="3275" height="1146.27" style="fill:none;"/><g><g><clipPath id="_clip1"><rect x="135.766" y="12.067" width="1122.97" height="1118.91"/></clipPath><g clip-path="url(#_clip1)"><path id="a" d="M299.972,88.411l123.589,129.788l-23.84,87.996l-83.728,25.056l-123.59,-129.889l-55.882,58.73l141.994,215.079l167.457,-33.475l587.718,657.663c90.022,95.312 211.418,-47.606 127.213,-128.987l-627.961,-624.188l38.24,-177.996l-211.132,-143.018l-60.078,63.241Zm773.007,921.749c16.021,-16.837 41.96,-16.837 57.981,0c16.02,16.838 16.02,44.098 -0,60.936c-16.021,16.737 -41.96,16.737 -57.981,-0c-16.021,-16.838 -16.021,-44.098 0,-60.936Z" style="fill-rule:nonzero;"/><path id="a1" serif:id="a" d="M299.972,88.411l123.589,129.788l-23.84,87.996l-83.728,25.056l-123.59,-129.889l-55.882,58.73l141.994,215.079l167.457,-33.475l587.718,657.663c90.022,95.312 211.418,-47.606 127.213,-128.987l-627.961,-624.188l38.24,-177.996l-211.132,-143.018l-60.078,63.241Zm773.007,921.749c16.021,-16.837 41.96,-16.837 57.981,0c16.02,16.838 16.02,44.098 -0,60.936c-16.021,16.737 -41.96,16.737 -57.981,-0c-16.021,-16.838 -16.021,-44.098 0,-60.936Z" style="fill-rule:nonzero;"/><path id="a2" serif:id="a" d="M299.972,88.411l123.589,129.788l-23.84,87.996l-83.728,25.056l-123.59,-129.889l-55.882,58.73l141.994,215.079l167.457,-33.475l587.718,657.663c90.022,95.312 211.418,-47.606 127.213,-128.987l-627.961,-624.188l38.24,-177.996l-211.132,-143.018l-60.078,63.241Zm773.007,921.749c16.021,-16.837 41.96,-16.837 57.981,0c16.02,16.838 16.02,44.098 -0,60.936c-16.021,16.737 -41.96,16.737 -57.981,-0c-16.021,-16.838 -16.021,-44.098 0,-60.936Z" style="fill-rule:nonzero;"/><clipPath id="_clip2"><path id="a3" serif:id="a" d="M-224.521,-813.595l123.589,129.788l-23.84,87.996l-83.729,25.056l-123.589,-129.889l-55.883,58.731l141.995,215.078l167.456,-33.475l587.719,657.663c90.022,95.312 211.418,-47.606 127.213,-128.987l-627.961,-624.188l38.24,-177.996l-211.132,-143.018l-60.078,63.241Zm773.007,921.75c16.021,-16.838 41.96,-16.838 57.98,-0c16.021,16.837 16.021,44.098 0,60.935c-16.02,16.737 -41.959,16.737 -57.98,0c-16.021,-16.837 -16.021,-44.098 0,-60.935Z"/></clipPath><g clip-path="url(#_clip2)"><path d="M299.972,88.411l123.589,129.788l-23.84,87.996l-83.728,25.056l-123.59,-129.889l-55.882,58.73l141.994,215.079l167.457,-33.475l587.718,657.663c90.022,95.312 211.418,-47.606 127.213,-128.987l-627.961,-624.188l38.24,-177.996l-211.132,-143.018l-60.078,63.241Zm773.007,921.749c16.021,-16.837 41.96,-16.837 57.981,0c16.02,16.838 16.02,44.098 -0,60.936c-16.021,16.737 -41.96,16.737 -57.981,-0c-16.021,-16.838 -16.021,-44.098 0,-60.936Z" style="fill-rule:nonzero;"/></g><path d="M318.194,70.371l128.259,134.098l-31.755,117.163l-104.419,32.773l-129.387,-137.707l-45.126,45.504l135.411,199.846l180.233,-41.493l596.015,665.109c71.521,83.186 192.63,-26.761 106.232,-116.259l-637.969,-632.42l36.809,-172.085l-190.34,-140.613l-43.963,46.103l-0,-0.019Zm762.599,935.087c15.925,-16.737 44.151,-20.045 60.078,-3.007c16.212,16.738 29.181,46.404 6.199,78.576c-19.072,20.045 -49.587,19.244 -68.658,-2.405c-16.021,-16.838 -13.828,-56.127 2.384,-73.163l-0.003,-0.001Z" style="fill-rule:nonzero;"/><path d="M316.924,70.591l223.81,237.03l30.707,-139.012l-210.748,-144.324l-43.77,46.302l0.001,0.004Z" style="fill-rule:nonzero;"/><path d="M760.75,572.698l44.163,42.897c3.624,43.297 -6.961,56.324 -74.666,116.659l-82.011,-92.406l112.429,-67.15l0.086,-0l-0.001,0Z" style="fill-rule:nonzero;"/><path id="b" d="M618.291,36.295l7.248,1.603c84.3,-29.465 273.499,86.593 231.349,190.023c-10.68,16.236 -8.869,45.1 4.005,63.24l-236.594,248.754c-13.255,-13.931 -42.722,-13.631 -56.264,-0l-391.271,394.677c-35.666,35.98 -7.629,66.548 7.438,82.684l70.187,73.764c15.353,16.036 55.882,37.684 84.681,5.613l369.243,-409.01c12.874,-14.231 12.97,-44.799 0,-58.831c0,0 0.096,-0.2 0,-0.2l237.548,-249.555c25.081,23.753 48.767,25.805 71.236,19.343c43.396,-12.482 67.585,32.137 93.55,64.744l-11.729,12.127c-17.356,18.441 -15.735,49.51 3.719,69.955c19.454,20.446 49.112,22.15 66.468,3.909l77.625,-81.481c17.355,-18.441 15.734,-49.51 -3.815,-69.855c-17.547,-18.542 -43.008,-20.947 -60.746,-7.718c-53.212,-62.739 -25.271,-72.16 -95.457,-153.842l-131.505,-141.214c-94.695,-97.617 -217.713,-97.517 -336.916,-58.73l0,-0Z" style="fill-rule:nonzero;"/><path id="b1" serif:id="b" d="M618.291,36.295l7.248,1.603c84.3,-29.465 273.499,86.593 231.349,190.023c-10.68,16.236 -8.869,45.1 4.005,63.24l-236.594,248.754c-13.255,-13.931 -42.722,-13.631 -56.264,-0l-391.271,394.677c-35.666,35.98 -7.629,66.548 7.438,82.684l70.187,73.764c15.353,16.036 55.882,37.684 84.681,5.613l369.243,-409.01c12.874,-14.231 12.97,-44.799 0,-58.831c0,0 0.096,-0.2 0,-0.2l237.548,-249.555c25.081,23.753 48.767,25.805 71.236,19.343c43.396,-12.482 67.585,32.137 93.55,64.744l-11.729,12.127c-17.356,18.441 -15.735,49.51 3.719,69.955c19.454,20.446 49.112,22.15 66.468,3.909l77.625,-81.481c17.355,-18.441 15.734,-49.51 -3.815,-69.855c-17.547,-18.542 -43.008,-20.947 -60.746,-7.718c-53.212,-62.739 -25.271,-72.16 -95.457,-153.842l-131.505,-141.214c-94.695,-97.617 -217.713,-97.517 -336.916,-58.73l0,-0Z" style="fill-rule:nonzero;"/><path d="M876.912,274.31l-280.837,295.164l84.204,88.497l280.837,-295.062l-84.204,-88.599Z" style="fill-rule:nonzero;"/><path d="M934.223,334.57l-280.837,295.062l26.892,28.364l280.837,-295.062l-26.892,-28.364Z" style="fill-rule:nonzero;"/><path d="M910.668,287.236l-279.694,293.959l36.141,37.985l272.543,-301.476l-28.99,-30.468l-0,-0Z" style="fill-rule:nonzero;"/><path d="M618.299,36.315l7.247,1.603c84.301,-29.466 273.493,86.596 231.347,190.026c-10.68,16.237 -8.869,45.103 4.005,63.242l84.966,87.898c25.08,23.753 48.728,25.758 71.233,19.343c43.39,-12.327 67.515,32.072 93.55,64.747l-11.729,12.127c-17.356,18.441 -15.735,49.509 3.719,69.956c19.453,20.446 49.109,22.15 66.468,3.909l77.622,-81.483c17.356,-18.442 15.735,-49.51 -3.814,-69.855c-17.547,-18.542 -43.009,-20.947 -60.745,-7.717c-53.212,-62.739 -25.27,-72.162 -95.455,-153.844l-131.504,-141.218c-94.693,-97.62 -217.71,-97.519 -336.909,-58.734l-0.001,-0Z" style="fill-rule:nonzero;"/><path d="M1182.14,390.066c-53.212,-62.739 -25.27,-72.162 -95.454,-153.844l-131.505,-141.218c-54.259,-55.923 -117.867,-79.78 -184.62,-82.784l392.211,416.234l28.373,-27.361l-9.015,-11.025l0.01,-0.002Z" style="fill-rule:nonzero;"/><path d="M862.902,196.67c0.477,10.022 -1.71,20.045 -6.199,31.27c-10.489,16.237 -8.678,45.102 4.196,63.242l84.966,87.897c25.08,23.754 48.729,25.758 71.234,19.344c10.299,-3.308 19.644,-2.706 28.417,-0c26.701,7.717 -182.711,-205.96 -182.615,-202.753l0,1.002l0.001,-0.002Z" style="fill-rule:nonzero;"/><path d="M624.303,539.922c-13.255,-13.932 -42.723,-13.631 -56.264,-0l-391.249,394.684c-35.665,35.981 -7.82,66.551 7.438,82.688l70.186,73.763c15.353,16.036 55.88,37.684 84.682,5.613l369.236,-409.018c12.874,-14.231 12.97,-44.802 0,-58.83c0,-0 0.096,-0.201 0,-0.201l-84.011,-88.7l-0.018,0.001Z" style="fill-rule:nonzero;"/><path d="M184.103,1017.19l70.186,73.865c15.353,16.036 54.64,38.988 83.442,7.116l370.669,-410.619c12.873,-14.332 13.255,-45.102 -0,-58.932l-84.204,-88.599l-440.093,477.183l-0,-0.014Z" style="fill-rule:nonzero;"/><path d="M574.421,574.507l-370.765,381.252c-15.449,15.635 -10.204,37.584 0.953,49.011l39.383,39.789l404.028,-436.977l-37.381,-36.882c-8.011,-8.019 -26.702,-5.713 -36.237,3.808l0.019,-0.001Z" style="fill-rule:nonzero;"/><clipPath id="_clip3"><path id="b2" serif:id="b" d="M93.798,-865.711l7.248,1.603c84.3,-29.465 273.499,86.593 231.349,190.023c-10.681,16.236 -8.869,45.1 4.005,63.241l-236.594,248.753c-13.255,-13.931 -42.722,-13.631 -56.264,-0l-391.272,394.677c-35.665,35.98 -7.629,66.548 7.439,82.684l70.186,73.764c15.354,16.036 55.883,37.684 84.682,5.613l369.243,-409.01c12.874,-14.231 12.97,-44.799 0,-58.831c0,0 0.096,-0.2 0,-0.2l237.548,-249.555c25.08,23.753 48.766,25.805 71.236,19.343c43.395,-12.482 67.585,32.138 93.55,64.744l-11.729,12.127c-17.356,18.441 -15.735,49.51 3.719,69.956c19.454,20.445 49.111,22.149 66.467,3.908l77.625,-81.481c17.356,-18.441 15.735,-49.51 -3.814,-69.855c-17.547,-18.541 -43.008,-20.947 -60.746,-7.717c-53.212,-62.74 -25.271,-72.161 -95.458,-153.843l-131.504,-141.214c-94.695,-97.617 -217.713,-97.516 -336.916,-58.73l0,-0Z"/></clipPath><g clip-path="url(#_clip3)"><path d="M618.291,36.295l7.248,1.603c84.3,-29.465 273.499,86.593 231.349,190.023c-10.68,16.236 -8.869,45.1 4.005,63.24l-236.594,248.754c-13.255,-13.931 -42.722,-13.631 -56.264,-0l-391.271,394.677c-35.666,35.98 -7.629,66.548 7.438,82.684l70.187,73.764c15.353,16.036 55.882,37.684 84.681,5.613l369.243,-409.01c12.874,-14.231 12.97,-44.799 0,-58.831c0,0 0.096,-0.2 0,-0.2l237.548,-249.555c25.081,23.753 48.767,25.805 71.236,19.343c43.396,-12.482 67.585,32.137 93.55,64.744l-11.729,12.127c-17.356,18.441 -15.735,49.51 3.719,69.955c19.454,20.446 49.112,22.15 66.468,3.909l77.625,-81.481c17.355,-18.441 15.734,-49.51 -3.815,-69.855c-17.547,-18.542 -43.008,-20.947 -60.746,-7.718c-53.212,-62.739 -25.271,-72.16 -95.457,-153.842l-131.505,-141.214c-94.695,-97.617 -217.713,-97.517 -336.916,-58.73l0,-0Z" style="fill-rule:nonzero;"/></g><path d="M1234.79,409.741c14.4,14.432 17.165,34.477 -2.67,53.722l-36.904,36.381c-19.835,19.544 -71.711,-32.573 -51.973,-52.015l37,-36.381c19.739,-19.544 40.145,-16.136 54.547,-1.704l0,-0.003Z" style="fill-rule:nonzero;"/></g><g transform="matrix(1018.21,0,0,1018.21,3188.47,779.8)"></g><text x="1291.54px" y="779.8px" style="font-family:'Futura-Bold', 'Futura', sans-serif;font-weight:700;font-size:1018.21px;">DIY</text><g transform="matrix(390.095,0,0,390.095,2434,1097.52)"></g><text x="1357.34px" y="1097.52px" style="font-family:'NanumBrush', 'Nanum Brush Script', cursive;font-size:390.095px;">by VTEX</text></g></g></svg>